<mxfile host="app.diagrams.net" modified="2023-11-13T11:14:24.028Z" agent="Mozilla/5.0 (Windows NT 10.0; Win64; x64) AppleWebKit/537.36 (KHTML, like Gecko) Chrome/119.0.0.0 Safari/537.36" version="22.1.0" etag="Woc_8rPob6z979WkgW0o" type="github">
  <diagram name="Page-1" id="JnEhb6UkAwpNADWqNlDv">
    <mxGraphModel>
      <root>
        <mxCell id="0" />
        <mxCell id="1" parent="0" />
      </root>
    </mxGraphModel>
  </diagram>
</mxfile>
